<?xml version="1.0" encoding="UTF-8"?>
<!DOCTYPE svg PUBLIC "-//W3C//DTD SVG 1.1//EN" "http://www.w3.org/Graphics/SVG/1.1/DTD/svg11.dtd">
<!-- Creator: CorelDRAW 2021 (64-Bit) -->
<svg xmlns="http://www.w3.org/2000/svg" xml:space="preserve" width="106mm" height="28.494mm" version="1.1" style="shape-rendering:geometricPrecision; text-rendering:geometricPrecision; image-rendering:optimizeQuality; fill-rule:evenodd; clip-rule:evenodd"
viewBox="0 0 10600 2849.4"
 xmlns:xlink="http://www.w3.org/1999/xlink"
 xmlns:xodm="http://www.corel.com/coreldraw/odm/2003">
 <defs>
  <style type="text/css">
   <![CDATA[
    .fil0 {fill:#EA5D21}
    .fil1 {fill:white}
   ]]>
  </style>
 </defs>
 <g id="Слой_x0020_1">
  <metadata id="CorelCorpID_0Corel-Layer"/>
  <polygon class="fil0" points="-7.13,0.55 10592.87,0.55 10592.87,2849.91 -7.13,2849.91 "/>
  <path class="fil1" d="M8538.8 1578.09l-562.47 0c-83.33,0 -82.81,109.37 0,109.37 74.47,0 145.3,-1.56 219.26,-1.56 5.72,0 10.93,0 16.66,0.52l140.62 0c94.27,0 205.2,76.55 205.2,178.11l0 28.12c0,101.04 -110.93,178.12 -205.2,178.12l-30.73 0 -126.03 0 0 0 -14.59 0 -442.16 0 0 -138.01 581.74 0c86.98,0 84.38,-109.37 0,-109.37 -73.95,0 -146.34,1.04 -219.26,1.04 -5.21,0 -10.42,0 -15.62,-0.52l-141.14 0c-94.27,0 -205.2,-76.56 -205.2,-178.12l0 -27.6c0,-101.04 110.93,-178.12 205.2,-178.12l157.28 0 438 0 0 138.02 -1.56 0zm-2091.04 108.33l376.03 1.04c82.81,0 83.32,-109.37 0,-109.37l-100 0 -143.74 0 -100 0c-32.81,0 -59.89,23.44 -66.14,54.16l-0.52 0 0 57.29c11.45,-2.09 22.92,-3.12 34.37,-3.12l0 0zm614.03 246.34l-581.74 0c-83.33,0 -83.33,-109.37 0,-109.37 73.95,0 146.35,1.04 219.26,1.04 5.21,0 10.42,0 15.62,-0.52l141.14 0c94.27,0 205.2,-76.56 205.2,-178.12l0 -27.6c0,-101.04 -110.93,-178.12 -205.2,-178.12l-132.8 0 -24.48 0 -119.26 0 -132.81 0c-94.27,0 -205.2,76.56 -205.2,178.12l0 14.06 0 231.76 0 28.12c0,101.04 110.93,178.11 205.2,178.11 204.67,0 409.35,0 614.03,0l0 -137.48 1.04 0zm2354.05 35.93l0 66.14 0 35.94 -69.79 0 -157.29 0c-94.26,0 -205.2,-77.08 -205.2,-178.12l0 -184.88 0 0 0.01 -89.58 0 -0.52 0 -397.38c0,-85.41 69.27,-154.67 154.68,-154.67l19.27 0 0 377.06c10.42,-1.56 20.83,-2.6 31.25,-2.6l157.28 -0.01 21.87 0 0 138.01 -104.68 0.01 -105.2 0 0 104.16 0 0 0 0.52 0 60.41 0 84.37c0,57.81 47.39,105.21 105.2,105.21l153.12 0 0 35.93 -0.52 0zm-3170.15 -528.62c-76.56,0.52 -181.76,-10.42 -236.97,80.73l-254.67 386.43 -254.68 -386.43c-51.56,-89.06 -157.28,-80.73 -236.97,-80.73l346.86 533.83c34.9,53.64 75,91.14 125.52,96.34 61.45,6.26 117.18,-24.99 163.53,-96.34 107.28,-164.58 231.24,-354.67 347.38,-533.83l0 0zm-2248.32 134.89c0,-78.12 53.64,-135.41 131.24,-135.41l114.06 0.52c10.42,0 22.92,2.6 44.27,23.95l471.85 460.92 0 -375.5c0,-78.12 53.64,-109.37 131.24,-109.37l114.06 0.52c-43.23,5.21 -71.87,16.66 -71.35,122.91l0 411.96c0,39.06 -28.65,95.83 -67.7,95.83l-118.75 0 -39.07 0c-38.01,0.52 -68.74,-34.37 -94.26,-59.89l-442.17 -435.4c0,4.17 0,8.86 0,13.55l0 482.26 -173.94 0 0 -496.85 0.52 0zm3200.35 0c0,-78.12 77.09,-135.41 154.68,-135.41l19.27 0 258.32 0 0 0 54.68 0 0 138.01 -54.68 0 -153.11 0c-57.82,0 -105.21,47.4 -105.21,105.21l0 387.48 -173.95 0 0 -495.29 0 0zm3094.63 974.95l-19.27 0c-85.41,0 -154.67,-69.27 -154.67,-154.68l0 -327.07 0 0c-10.42,1.57 -20.84,2.61 -31.26,2.61l-274.46 0 0 0 -140.62 0c-94.27,0 -205.2,-77.08 -205.2,-178.12l0.01 -274.46c0,-89.06 85.93,-159.37 170.82,-174.99l0 202.07 0 140.1 0 80.2 0 1.57c1.04,36.45 30.73,65.62 67.18,65.62l349.99 0c31.77,0 58.85,-22.4 65.62,-52.61l0 0c1.04,-4.68 1.56,-9.89 1.56,-15.1l0 -80.21 0 -77.08 0 -89.57c0,-89.06 85.93,-159.37 170.82,-174.99l0 202.07 0 224.99 0 0 0 22.92 0 0.52 -0.52 656.21 0 0zm-1608.77 -974.95c0,-78.12 77.09,-135.41 154.68,-135.41l19.27 0 0 630.7 -173.95 0 0 -495.29 0 0zm-5466.9 -131.76c-84.89,15.62 -170.83,85.93 -170.83,174.99l0 274.46c0,101.04 110.94,178.12 205.2,178.12l207.81 0 66.66 0 0 0 140.62 0c94.26,0 205.19,-77.08 205.19,-178.12 0,-82.28 0,-165.09 0,-247.38l0 -202.07c-84.89,15.62 -170.82,85.93 -170.82,174.99 0,82.28 0,165.09 0,247.38 0,36.98 -30.21,67.18 -67.18,67.18l-175 0.01 -174.99 0c-36.98,0 -67.18,-30.21 -67.18,-67.19l0 -49.99 0 -170.31 0 -202.07 0.52 0zm1842.09 131.76c0,-78.12 77.08,-135.41 154.68,-135.41l19.27 0 0 630.7 -173.95 0 0 -495.29 0 0zm-4765.9 -765.06c0,-78.12 77.08,-135.42 154.68,-135.42l19.27 0.01 0 631.21 -173.95 0 0 -495.8 0 0zm1825.43 -25.52c0,-78.12 53.64,-109.37 131.24,-109.37l114.06 0.52c-43.75,5.21 -71.87,16.66 -71.35,122.91l0 411.96c0,39.06 -28.65,95.83 -67.71,95.83l-157.28 0 0 0 0 0c-38.02,0.52 -68.22,-34.38 -94.27,-59.9l-444.24 -437.47 0 402.06c0,39.06 -28.65,95.83 -67.71,95.83l-157.81 0 0 0 0 0c-38.01,0.51 -68.74,-34.38 -94.26,-59.9l-442.17 -436.95 0 0c0,4.16 0,8.85 0,13.54l0 482.26 -174.46 0 0 -495.8c0,-78.12 53.64,-135.42 131.24,-135.42l114.06 0.52c10.42,0 22.92,2.61 44.27,23.96l471.85 460.91 0 -375.49c0,-78.12 53.64,-109.37 131.24,-109.37l114.06 0.52 0 0 1.56 0c10.94,0 23.44,2.6 44.79,23.95l471.85 460.92 0 -376.02 1.04 0zm4926.31 28.12l-562.47 0c-83.33,0 -82.81,109.37 0,109.37 74.47,0 145.3,-1.04 219.26,-1.04 5.73,0 10.93,0 16.66,0.52l140.62 0c94.27,0 205.2,76.56 205.2,178.12l0 28.12c0,101.04 -110.93,178.11 -205.2,178.11l-30.73 0 -126.03 0 0 0 -14.59 0 -442.16 0 0 -138.01 581.74 0c86.98,0 84.37,-109.37 0,-109.37 -73.95,0 -146.35,1.56 -219.26,1.56 -5.21,0 -10.42,0 -15.62,-0.52l-141.14 0c-94.27,0 -205.2,-76.55 -205.2,-178.11l0 -28.65c0,-101.04 110.93,-178.11 205.2,-178.11l157.28 0 438 0 0 138.01 -1.56 0zm-1117.13 -2.6c0,-78.12 77.08,-135.42 154.67,-135.42l19.27 0.01 0 631.21 -173.94 0 0 -495.8 0 0zm-477.06 -509.35l0 761.94c0,57.81 47.39,105.21 105.2,105.21l229.15 -0.01 0 35.94 0 66.14 0 35.94 -146.34 -0.01 -157.28 0c-94.27,0 -205.2,-77.08 -205.2,-178.11l0 -672.36c0,-85.42 69.26,-154.68 154.67,-154.68l19.8 0 0 0zm-2407.69 1005.15l-54.68 0 -85.94 0 -66.66 0 -5.21 0 -202.59 0c-94.27,0 -205.2,-77.08 -205.2,-178.11l0 -274.99c0,-101.04 110.93,-178.11 205.2,-178.11l42.7 0 65.11 0 48.95 0 88.01 0 170.31 0c94.27,0 205.2,77.08 205.2,178.11l0 274.47c0,101.56 -110.93,178.63 -205.2,178.63l0 0zm34.37 -205.19l0 -220.3c0,-36.98 -30.2,-67.19 -67.18,-67.19l-349.98 0c-30.73,0 -61.46,21.88 -66.67,57.81l0 0c-0.52,3.13 -0.52,31.26 -0.52,34.38l0 195.3c0,36.98 30.21,67.19 67.19,67.19l174.99 -0.01 174.99 0c36.98,0 67.18,-30.21 67.18,-67.18l0 0zm917.14 205.19l-140.61 0 0 0 -3.65 0 -3.13 0 -3.12 0 -3.13 0 -3.12 0 -3.12 0 -3.13 0 -2.08 0 -3.13 0 -3.12 0 -3.13 0 -3.12 0 -3.13 0 -3.12 0 -2.09 0 -3.12 0 -3.12 0 -223.43 0c-10.42,0 -20.83,-1.04 -31.25,-2.6l0 327.07c0,85.41 -69.27,154.67 -154.68,154.67l-19.27 0 0 -932.24c0,-101.04 110.93,-178.11 205.2,-178.11l27.08 0 129.68 0 25.52 0 232.8 0c94.27,0 205.2,77.08 205.2,178.11l0 274.47c0.52,101.56 -110.41,178.63 -204.68,178.63l0 0zm34.38 -203.11l0 -22.92 0 -199.99c0,-36.45 -29.17,-66.14 -65.1,-67.18l-2.09 0 -349.98 0c-36.98,0 -67.18,30.21 -67.18,67.18l0 220.3c0,36.98 30.2,67.19 67.18,67.19l349.98 0c35.94,0.52 66.14,-28.64 67.19,-64.58l0 0zm-66.15 -290.09l-1.04 0 -349.98 0 0 0 349.98 0 1.04 0 0 0zm-355.71 0.52c-2.6,0 -5.21,0.52 -7.81,1.05 2.6,-0.53 5.21,-1.05 7.81,-1.05l0 0zm-9.37 1.04c-3.65,0.52 -6.77,1.56 -9.9,3.13 3.13,-1.56 6.77,-2.6 9.9,-3.13l0 0zm1351.49 491.64l-54.68 0 -85.94 0 -66.66 0 -5.21 0 -202.59 0c-94.27,0 -205.2,-77.08 -205.2,-178.11l0 -274.99c0,-101.04 110.93,-178.11 205.2,-178.11l42.7 0 65.1 0 48.96 0 88.02 0 170.3 0c94.26,0 205.2,77.08 205.2,178.11l0 274.47c0.52,101.56 -110.41,178.63 -205.2,178.63l0 0zm34.9 -205.19l0 -220.3c0,-36.98 -30.21,-67.19 -67.19,-67.19l-349.98 0c-30.73,0 -61.46,21.88 -66.67,57.81l0 0c-0.51,3.13 -0.51,31.26 -0.51,34.38l0 195.3c0,36.98 30.2,67.19 67.18,67.19l174.99 -0.01 174.99 0c36.98,0 67.19,-30.21 67.19,-67.18l0 0z"/>
 </g>
</svg>
